<svg xmlns="http://www.w3.org/2000/svg" width="29.716" height="24.071" viewBox="0 0 29.716 24.071"><defs><style>.a{fill:#1a1759;fill-rule:evenodd;}.b{fill:none;stroke:#1a1759;stroke-width:2px;}</style></defs><g transform="translate(0)"><path class="a" d="M9.573,35.259a2.045,2.045,0,0,0,2.315,2.313H32.845a2.039,2.039,0,0,0,2.3-2.313V27.522H9.573ZM7.5,19.943q0-4.369,4.389-4.369H32.847q4.369,0,4.37,4.369V35.259q0,4.388-4.37,4.386H11.89q-4.388,0-4.389-4.386Zm2.073,0v1.778h25.57V19.943a2.03,2.03,0,0,0-2.3-2.3H11.89a2.04,2.04,0,0,0-2.316,2.3Z" transform="translate(-7.5 -15.574)"/><line class="b" x2="12.913" transform="translate(4.925 17.076)"/></g></svg>