<svg xmlns="http://www.w3.org/2000/svg" xmlns:xlink="http://www.w3.org/1999/xlink" width="234.214" height="75.76" viewBox="0 0 234.214 75.76"><defs><style>.a{fill:url(#a);}.b{clip-path:url(#c);}.c{fill:#fff;}.c,.d{opacity:0.1;}.d{fill:none;stroke:#fff;stroke-miterlimit:10;stroke-width:15px;}</style><linearGradient id="a" x1="0.197" y1="-0.264" x2="0.733" y2="1.088" gradientUnits="objectBoundingBox"><stop offset="0.007" stop-color="#61b5ff"/><stop offset="1" stop-color="#2c65bd"/></linearGradient><clipPath id="c"><rect class="a" width="234.214" height="75.76" rx="15.752"/></clipPath></defs><rect class="a" width="234.214" height="75.76" rx="15.752"/><g class="b"><ellipse class="c" cx="39.217" cy="39.218" rx="39.217" ry="39.218" transform="translate(138.421 29.454)"/><path class="d" d="M777.264,723.049a58.006,58.006,0,0,1-58,58.006,46.4,46.4,0,0,1-46.4-46.4,36.98,36.98,0,0,1,3.384-15.507" transform="translate(-592.961 -760.299)"/><path class="d" d="M644.826,914.094A113.291,113.291,0,0,1,531.535,800.8a91.523,91.523,0,0,1,.821-12.255" transform="translate(-531.666 -790.401)"/></g></svg>