<svg xmlns="http://www.w3.org/2000/svg" xmlns:xlink="http://www.w3.org/1999/xlink" width="77.79" height="53.837" viewBox="0 0 77.79 53.837"><defs><style>.a{fill:url(#a);}.b{fill:url(#b);}.c{fill:url(#c);}.d{fill:url(#d);}</style><linearGradient id="a" x1="0.5" y1="1" x2="0.5" gradientUnits="objectBoundingBox"><stop offset="0" stop-color="#b2e0f7"/><stop offset="0.001" stop-color="#b2e0f7"/><stop offset="0.265" stop-color="#d0ecfa"/><stop offset="0.524" stop-color="#e6f5fc"/><stop offset="0.773" stop-color="#f3fbfe"/><stop offset="1" stop-color="#f8fdff"/></linearGradient><linearGradient id="b" x1="0.5" y1="1" x2="0.5" gradientUnits="objectBoundingBox"><stop offset="0" stop-color="#b2d1eb"/><stop offset="0.165" stop-color="#c1dbef"/><stop offset="0.458" stop-color="#d7e9f5"/><stop offset="0.741" stop-color="#e4f2f8"/><stop offset="1" stop-color="#e9f5fa"/></linearGradient><linearGradient id="c" x1="0.5" y1="1" x2="0.5" gradientUnits="objectBoundingBox"><stop offset="0" stop-color="#b2e0f7"/><stop offset="0.051" stop-color="#b9e2f7"/><stop offset="0.302" stop-color="#d7effa"/><stop offset="0.548" stop-color="#edf7fd"/><stop offset="0.784" stop-color="#fafdfe"/><stop offset="1" stop-color="#fff"/></linearGradient><linearGradient id="d" x1="0.5" y1="1" x2="0.5" gradientUnits="objectBoundingBox"><stop offset="0" stop-color="#b2e0f7"/><stop offset="0.203" stop-color="#c6e8f9"/><stop offset="0.483" stop-color="#dcf2fc"/><stop offset="0.753" stop-color="#e9f8fe"/><stop offset="1" stop-color="#eefaff"/></linearGradient></defs><g transform="translate(-12 -1)"><path class="a" d="M100.718,334.049,88.156,319.8a15.805,15.805,0,1,0-16.433-2.2l-9.907,16.442Z" transform="translate(-31.957 -288.563)"/><ellipse class="b" cx="14.483" cy="14.483" rx="14.483" ry="14.483" transform="translate(40.951 15.52)"/><ellipse class="c" cx="17.859" cy="17.859" rx="17.859" ry="17.859" transform="translate(12 9.767)"/><g transform="translate(19.874 10.351)"><path class="d" d="M135.814,352.329l-12.562-14.245a15.805,15.805,0,1,0-16.433-2.2l-9.907,16.442Z" transform="translate(-79.053 -307.843)"/><ellipse class="d" cx="14.483" cy="14.483" rx="14.483" ry="14.483" transform="translate(40.951 15.52)"/><ellipse class="d" cx="17.859" cy="17.859" rx="17.859" ry="17.859" transform="translate(0 8.767)"/></g></g></svg>