<svg xmlns="http://www.w3.org/2000/svg" xmlns:xlink="http://www.w3.org/1999/xlink" width="93.094" height="78.336" viewBox="0 0 93.094 78.336"><defs><style>.a,.b{fill:none;stroke-linecap:round;stroke-miterlimit:10;stroke-width:6.91px;}.a{stroke:#ffc53d;}.b{stroke:#ffe53d;}.c{fill:url(#a);}.d{fill:url(#b);}</style><linearGradient id="a" x1="0.485" y1="0.004" x2="0.515" y2="0.991" gradientUnits="objectBoundingBox"><stop offset="0" stop-color="#ffe53d"/><stop offset="0.343" stop-color="#ffdf3d"/><stop offset="0.765" stop-color="#ffd03d"/><stop offset="1" stop-color="#ffc53d"/></linearGradient><linearGradient id="b" x1="0.5" y1="1" x2="0.5" gradientUnits="objectBoundingBox"><stop offset="0" stop-color="#b2e0f7"/><stop offset="0.051" stop-color="#b9e2f7"/><stop offset="0.302" stop-color="#d7effa"/><stop offset="0.548" stop-color="#edf7fd"/><stop offset="0.784" stop-color="#fafdfe"/><stop offset="1" stop-color="#fff"/></linearGradient></defs><g transform="translate(3.455 3.455)"><line class="a" y1="0.003" transform="translate(36.232 36.229)"/><line class="a" y1="7.713" transform="translate(36.232)"/><line class="a" y1="0.003" transform="translate(36.232 36.229)"/><line class="b" x1="5.446" y1="5.446" transform="translate(10.614 10.611)"/><line class="a" x1="0.003" transform="translate(36.232 36.229)"/><line class="a" x1="7.716" transform="translate(0 36.229)"/><line class="b" x1="5.436" y2="5.436" transform="translate(56.379 10.649)"/><path class="a" d="M89.518,814.91v0h0" transform="translate(-53.286 -778.678)"/><ellipse class="c" cx="22.326" cy="22.326" rx="22.326" ry="22.326" transform="translate(13.88 13.878)"/><path class="d" d="M120.825,839.747l-12.984-14.723a16.336,16.336,0,1,0-16.985-2.271l-10.24,16.994Z" transform="translate(-49.425 -769.509)"/><ellipse class="d" cx="14.969" cy="14.969" rx="14.969" ry="14.969" transform="matrix(0.921, -0.389, 0.389, 0.921, 50.415, 47.3)"/><ellipse class="d" cx="18.459" cy="18.459" rx="18.459" ry="18.459" transform="translate(12.732 33.32)"/></g></svg>