<svg xmlns="http://www.w3.org/2000/svg" xmlns:xlink="http://www.w3.org/1999/xlink" width="79.48" height="73.12" viewBox="0 0 79.48 73.12"><defs><style>.a{fill:url(#a);}.b{fill:url(#g);}.c{fill:url(#h);}</style><linearGradient id="a" y1="0.5" x2="1" y2="0.5" gradientUnits="objectBoundingBox"><stop offset="0" stop-color="#74b8f2"/><stop offset="0.911" stop-color="#cdecfd"/><stop offset="1" stop-color="#d6f2ff"/></linearGradient><linearGradient id="g" x1="0.5" y1="1" x2="0.5" gradientUnits="objectBoundingBox"><stop offset="0" stop-color="#accbe7"/><stop offset="0.112" stop-color="#b5d1e9"/><stop offset="0.442" stop-color="#cee1ef"/><stop offset="0.747" stop-color="#dceaf3"/><stop offset="1" stop-color="#e2eef5"/></linearGradient><linearGradient id="h" x1="0.5" y1="1" x2="0.5" gradientUnits="objectBoundingBox"><stop offset="0" stop-color="#aacae5"/><stop offset="0.181" stop-color="#bbd5e9"/><stop offset="0.469" stop-color="#d1e3f0"/><stop offset="0.746" stop-color="#deecf3"/><stop offset="1" stop-color="#e3eff5"/></linearGradient></defs><g transform="translate(2.411 47.47)"><g transform="translate(11.808 14.031)"><path class="a" d="M83.494,645.934a1.776,1.776,0,0,1-1.257-3.032l8.066-8.065a1.776,1.776,0,1,1,2.512,2.512l-8.065,8.065A1.771,1.771,0,0,1,83.494,645.934Z" transform="translate(-81.717 -634.315)"/></g><g transform="translate(25.728)"><path class="a" d="M108.075,621.268a1.776,1.776,0,0,1-1.256-3.032l8.176-8.176a1.776,1.776,0,0,1,2.513,2.512l-8.176,8.176A1.771,1.771,0,0,1,108.075,621.268Z" transform="translate(-106.298 -609.538)"/></g><g transform="translate(23.617 14.031)"><path class="a" d="M104.348,645.934a1.776,1.776,0,0,1-1.256-3.032l8.065-8.065a1.776,1.776,0,0,1,2.513,2.512l-8.066,8.065A1.77,1.77,0,0,1,104.348,645.934Z" transform="translate(-102.571 -634.315)"/></g><g transform="translate(37.537)"><path class="a" d="M128.929,621.268a1.776,1.776,0,0,1-1.256-3.032l8.176-8.176a1.776,1.776,0,0,1,2.512,2.512l-8.176,8.176A1.77,1.77,0,0,1,128.929,621.268Z" transform="translate(-127.152 -609.538)"/></g><g transform="translate(0 14.031)"><path class="a" d="M62.641,645.934a1.776,1.776,0,0,1-1.257-3.032l8.065-8.065a1.776,1.776,0,0,1,2.513,2.512L63.9,645.414A1.771,1.771,0,0,1,62.641,645.934Z" transform="translate(-60.864 -634.315)"/></g><g transform="translate(13.92)"><path class="a" d="M87.222,621.268a1.776,1.776,0,0,1-1.256-3.032l8.176-8.176a1.776,1.776,0,0,1,2.512,2.512l-8.176,8.176A1.769,1.769,0,0,1,87.222,621.268Z" transform="translate(-85.445 -609.538)"/></g></g><path class="b" d="M130.356,572.283,117.2,557.369a16.547,16.547,0,1,0-17.205-2.3L89.626,572.283Z" transform="translate(-70.928 -525.708)"/><circle class="c" cx="15.163" cy="15.163" r="15.163" transform="translate(36.593 31.412) rotate(-45)"/><ellipse class="c" cx="18.698" cy="18.698" rx="18.698" ry="18.698" transform="translate(0 9.179)"/></svg>