<svg xmlns="http://www.w3.org/2000/svg" xmlns:xlink="http://www.w3.org/1999/xlink" width="78.911" height="74.076" viewBox="0 0 78.911 74.076"><defs><style>.a{fill:url(#a);}.b{fill:url(#d);}</style><linearGradient id="a" x1="0.5" y1="1" x2="0.5" gradientUnits="objectBoundingBox"><stop offset="0" stop-color="#99bddb"/><stop offset="0.1" stop-color="#a8c7e1"/><stop offset="0.338" stop-color="#c6ddee"/><stop offset="0.571" stop-color="#dcedf7"/><stop offset="0.795" stop-color="#e9f6fd"/><stop offset="1" stop-color="#eefaff"/></linearGradient><linearGradient id="d" x1="0.5" y1="1" x2="0.5" gradientUnits="objectBoundingBox"><stop offset="0" stop-color="#74b8f2"/><stop offset="0.911" stop-color="#cdecfd"/><stop offset="1" stop-color="#d6f2ff"/></linearGradient></defs><path class="a" d="M600.012,816.3l-13.058-14.807a16.429,16.429,0,1,0-17.082-2.283l-10.3,17.091Z" transform="translate(-541.011 -770.057)"/><circle class="a" cx="15.054" cy="15.054" r="15.054" transform="translate(36.331 31.187) rotate(-45)"/><ellipse class="a" cx="18.564" cy="18.564" rx="18.564" ry="18.564" transform="translate(0 9.113)"/><g transform="translate(23.949 47.191)"><ellipse class="b" cx="3.07" cy="3.07" rx="3.07" ry="3.07" transform="translate(10.733)"/><ellipse class="b" cx="3.07" cy="3.07" rx="3.07" ry="3.07" transform="translate(13.325 10.458)"/><path class="b" d="M613.449,864.089a3.07,3.07,0,1,1-3.07-3.07A3.07,3.07,0,0,1,613.449,864.089Z" transform="translate(-585.663 -856.701)"/><ellipse class="b" cx="3.07" cy="3.07" rx="3.07" ry="3.07" transform="translate(0 10.458)"/><path class="b" d="M613.449,891.628a3.07,3.07,0,1,1-3.07-3.07A3.07,3.07,0,0,1,613.449,891.628Z" transform="translate(-585.663 -868.645)"/><ellipse class="b" cx="3.07" cy="3.07" rx="3.07" ry="3.07" transform="translate(7.663 20.746)"/></g></svg>