<svg xmlns="http://www.w3.org/2000/svg" xmlns:xlink="http://www.w3.org/1999/xlink" width="77.699" height="63.29" viewBox="0 0 77.699 63.29"><defs><style>.a{fill:none;stroke:#293a3d;stroke-linecap:round;stroke-miterlimit:10;stroke-width:6.257px;}.b{fill:url(#a);}.c{fill:url(#b);}.d{fill:url(#c);}.e{fill:url(#d);}.f{fill:url(#e);}</style><linearGradient id="a" x1="0.5" y1="1" x2="0.5" gradientUnits="objectBoundingBox"><stop offset="0" stop-color="#839bc4"/><stop offset="0.184" stop-color="#a3b2d5"/><stop offset="0.399" stop-color="#c1c8e5"/><stop offset="0.609" stop-color="#d7d9f0"/><stop offset="0.811" stop-color="#e4e2f7"/><stop offset="0.997" stop-color="#e9e6fa"/></linearGradient><linearGradient id="b" x1="0.5" y1="1" x2="0.5" gradientUnits="objectBoundingBox"><stop offset="0" stop-color="#839bc4"/><stop offset="0.158" stop-color="#9dadd2"/><stop offset="0.38" stop-color="#bbc3e3"/><stop offset="0.598" stop-color="#d1d2f0"/><stop offset="0.808" stop-color="#dedbf7"/><stop offset="1" stop-color="#e3dffa"/></linearGradient><linearGradient id="c" x1="0.5" y1="1" x2="0.5" gradientUnits="objectBoundingBox"><stop offset="0" stop-color="#839bc4"/><stop offset="0.153" stop-color="#9cadd2"/><stop offset="0.377" stop-color="#bac3e3"/><stop offset="0.596" stop-color="#d0d4ef"/><stop offset="0.807" stop-color="#ddddf7"/><stop offset="1" stop-color="#e2e1fa"/></linearGradient><linearGradient id="d" x1="0.5" y1="1" x2="0.5" gradientUnits="objectBoundingBox"><stop offset="0" stop-color="#ff7e3d"/><stop offset="0.692" stop-color="#ffd095"/><stop offset="1" stop-color="#fff7bf"/></linearGradient><linearGradient id="e" x1="0" y1="0.5" x2="1" y2="0.5" xlink:href="#d"/></defs><line class="a" x1="4.861" y2="4.861" transform="translate(41.307 39.48)"/><path class="b" d="M600.054,99.151,586.936,84.277a16.5,16.5,0,1,0-17.16-2.294L559.431,99.151Z" transform="translate(-540.782 -52.699)"/><ellipse class="c" cx="15.123" cy="15.123" rx="15.123" ry="15.123" transform="translate(38.07 23.281) rotate(-22.892)"/><ellipse class="d" cx="18.649" cy="18.649" rx="18.649" ry="18.649" transform="translate(0 9.155)"/><g transform="translate(28.493 37.709)"><g transform="translate(0.826 9.75)"><path class="e" d="M591.271,140.072h0l-11.224-.02a1.772,1.772,0,0,1,0-3.543h0l11.224.02a1.772,1.772,0,0,1,0,3.544Z" transform="translate(-578.275 -136.508)"/></g><g transform="translate(0.605)"><path class="f" d="M579.877,132.584h-.005a1.993,1.993,0,0,1-1.4-3.4l9.26-9.365a1.772,1.772,0,0,1,2.52,2.492l-8.611,8.708A1.773,1.773,0,0,1,579.877,132.584Zm1.116-.916-.012.012Zm-1.111-2.628h0Z" transform="translate(-577.884 -119.29)"/></g><g transform="translate(0 9.77)"><path class="f" d="M578.587,152.355a1.772,1.772,0,0,1-1.264-3.013l12.05-12.268a1.772,1.772,0,0,1,2.528,2.483l-12.05,12.268A1.77,1.77,0,0,1,578.587,152.355Z" transform="translate(-576.816 -136.544)"/></g></g></svg>