<svg xmlns="http://www.w3.org/2000/svg" xmlns:xlink="http://www.w3.org/1999/xlink" width="91.105" height="86.013" viewBox="0 0 91.105 86.013"><defs><style>.a{fill:url(#a);}.b,.c{fill:none;stroke-linecap:round;stroke-miterlimit:10;stroke-width:6.91px;}.b{stroke:#ffc53d;}.c{stroke:#ffe53d;}.d{fill:url(#c);}.e{fill:url(#e);}.f{fill:url(#f);}</style><linearGradient id="a" y1="0.5" x2="1" y2="0.5" gradientUnits="objectBoundingBox"><stop offset="0" stop-color="#74b8f2"/><stop offset="0.911" stop-color="#cdecfd"/><stop offset="1" stop-color="#d6f2ff"/></linearGradient><linearGradient id="c" x1="0.485" y1="0.004" x2="0.515" y2="0.991" gradientUnits="objectBoundingBox"><stop offset="0" stop-color="#ffe53d"/><stop offset="0.343" stop-color="#ffdf3d"/><stop offset="0.765" stop-color="#ffd03d"/><stop offset="1" stop-color="#ffc53d"/></linearGradient><linearGradient id="e" x1="0.5" y1="1" x2="0.5" gradientUnits="objectBoundingBox"><stop offset="0" stop-color="#c2e3ff"/><stop offset="0.049" stop-color="#c5e4ff"/><stop offset="0.403" stop-color="#def1ff"/><stop offset="0.729" stop-color="#ecf8ff"/><stop offset="1" stop-color="#f2fbff"/></linearGradient><linearGradient id="f" x1="0.5" y1="1" x2="0.5" gradientUnits="objectBoundingBox"><stop offset="0" stop-color="#c2e3ff"/><stop offset="0.101" stop-color="#cae7ff"/><stop offset="0.417" stop-color="#e0f2ff"/><stop offset="0.722" stop-color="#edf8ff"/><stop offset="1" stop-color="#f2fbff"/></linearGradient></defs><g transform="translate(3.455 3.455)"><g transform="translate(42.467 71.251)"><path class="a" d="M573.982,409.489a1.712,1.712,0,0,1-1.211-2.923l7.881-7.881a1.712,1.712,0,0,1,2.421,2.421l-7.881,7.881A1.706,1.706,0,0,1,573.982,409.489Z" transform="translate(-572.269 -398.183)"/></g><g transform="translate(53.849 71.251)"><path class="a" d="M594.082,409.489a1.712,1.712,0,0,1-1.211-2.923l7.881-7.881a1.712,1.712,0,0,1,2.421,2.421l-7.881,7.881A1.7,1.7,0,0,1,594.082,409.489Z" transform="translate(-592.37 -398.183)"/></g><line class="b" y1="0.003" transform="translate(36.232 36.229)"/><line class="b" y1="7.713" transform="translate(36.232)"/><line class="b" y1="0.003" transform="translate(36.232 36.229)"/><line class="c" x1="5.446" y1="5.446" transform="translate(10.614 10.611)"/><line class="b" x1="0.003" transform="translate(36.232 36.229)"/><line class="b" x1="7.716" transform="translate(0 36.229)"/><line class="c" x1="5.436" y2="5.436" transform="translate(56.379 10.649)"/><path class="b" d="M561.26,336.339v0h0" transform="translate(-525.027 -300.107)"/><ellipse class="d" cx="22.326" cy="22.326" rx="22.326" ry="22.326" transform="translate(13.88 13.878)"/><g transform="translate(31.084 71.251)"><path class="a" d="M553.88,409.489a1.712,1.712,0,0,1-1.21-2.923l7.881-7.881a1.712,1.712,0,0,1,2.421,2.421l-7.881,7.881A1.7,1.7,0,0,1,553.88,409.489Z" transform="translate(-552.168 -398.183)"/></g><g transform="translate(14.097 24.247)"><path class="e" d="M593.258,360.071,580.58,345.7A15.951,15.951,0,1,0,564,343.479l-10,16.592Z" transform="translate(-535.975 -315.177)"/><ellipse class="f" cx="14.616" cy="14.616" rx="14.616" ry="14.616" transform="translate(38.331 41.099) rotate(-76.566)"/><ellipse class="f" cx="18.023" cy="18.023" rx="18.023" ry="18.023" transform="translate(0 8.848)"/></g></g></svg>