<svg xmlns="http://www.w3.org/2000/svg" xmlns:xlink="http://www.w3.org/1999/xlink" width="87.075" height="80.954" viewBox="0 0 87.075 80.954"><defs><style>.a{fill:url(#a);}.b{fill:url(#d);}.c{fill:url(#e);}.d{fill:url(#f);}.e{fill:url(#g);}</style><linearGradient id="a" x1="0.5" y1="1" x2="0.5" gradientUnits="objectBoundingBox"><stop offset="0" stop-color="#b2e0f7"/><stop offset="0.051" stop-color="#b9e2f7"/><stop offset="0.302" stop-color="#d7effa"/><stop offset="0.548" stop-color="#edf7fd"/><stop offset="0.784" stop-color="#fafdfe"/><stop offset="1" stop-color="#fff"/></linearGradient><linearGradient id="d" y1="0.5" x2="1" y2="0.5" gradientUnits="objectBoundingBox"><stop offset="0" stop-color="#bdd3e6"/><stop offset="0.104" stop-color="#c3d8e9"/><stop offset="0.514" stop-color="#dcecf7"/><stop offset="0.573" stop-color="#d8eaf7"/><stop offset="1" stop-color="#c3def7"/></linearGradient><linearGradient id="e" y1="0.5" x2="1" y2="0.5" gradientUnits="objectBoundingBox"><stop offset="0" stop-color="#c3d6e6"/><stop offset="0.678" stop-color="#ecf3fa"/><stop offset="0.99" stop-color="#c8dbeb"/></linearGradient><linearGradient id="f" y1="0.5" x2="1" y2="0.5" gradientUnits="objectBoundingBox"><stop offset="0" stop-color="#e8f1f7"/><stop offset="0.401" stop-color="#dbebf7"/><stop offset="1" stop-color="#c1dff7"/></linearGradient><linearGradient id="g" y1="0.5" x2="1" y2="0.5" gradientUnits="objectBoundingBox"><stop offset="0" stop-color="#b8d1e6"/><stop offset="0.209" stop-color="#d9e6ef"/><stop offset="0.385" stop-color="#f2f5f7"/><stop offset="0.597" stop-color="#e5eff7"/><stop offset="0.985" stop-color="#c4dff7"/><stop offset="1" stop-color="#c3dff7"/></linearGradient></defs><g transform="translate(6)"><path class="a" d="M600.287,579.078,586.74,563.717a17.045,17.045,0,1,0-17.721-2.369l-10.684,17.731Z" transform="translate(-539.261 -531.105)"/><ellipse class="a" cx="15.618" cy="15.618" rx="15.618" ry="15.618" transform="translate(43.976 16.737)"/><ellipse class="a" cx="19.259" cy="19.259" rx="19.259" ry="19.259" transform="matrix(0.927, -0.375, 0.375, 0.927, -6, 18.079)"/><g transform="translate(11.08 39.889)"><g transform="translate(3.227 13.685)"><path class="b" d="M585.083,627.608H551.745a1.83,1.83,0,0,1,0-3.66h33.338a1.83,1.83,0,1,1,0,3.66Z" transform="translate(-549.915 -623.948)"/></g><g transform="translate(43.851)"><path class="c" d="M637.555,617.126H623.484a1.83,1.83,0,1,1,0-3.66h14.071a6.592,6.592,0,0,0,6.584-6.584,6.508,6.508,0,0,0-1.451-4.124,1.83,1.83,0,0,1,2.851-2.294,10.244,10.244,0,0,1-7.984,16.662Z" transform="translate(-621.654 -599.781)"/></g><g transform="translate(0 20.577)"><path class="d" d="M549.127,639.779h-11.91a1.83,1.83,0,0,1,0-3.66h11.91a1.83,1.83,0,1,1,0,3.66Z" transform="translate(-535.387 -636.119)"/></g><g transform="translate(18.916 20.577)"><path class="e" d="M602.367,656.607a1.83,1.83,0,1,1,0-3.66,6.584,6.584,0,1,0,0-13.168H570.622a1.83,1.83,0,0,1,0-3.66h31.746a10.244,10.244,0,0,1,0,20.488Z" transform="translate(-568.792 -636.119)"/></g></g></g></svg>